<?xml version="1.0" encoding="utf-8"?>
<!-- Generator: Adobe Illustrator 18.1.1, SVG Export Plug-In . SVG Version: 6.00 Build 0)  -->
<svg version="1.1" id="Calque_1" xmlns="http://www.w3.org/2000/svg" xmlns:xlink="http://www.w3.org/1999/xlink" x="0px" y="0px"
	 viewBox="0 0 48 48" style="enable-background:new 0 0 48 48;" xml:space="preserve">
<style type="text/css">
	.st0{fill:url(#cross-fill_2_);}
	.st1{fill:url(#cross-stroke_2_);}
	.st2{fill:url(#fill_5_);}
	.st3{fill:url(#light_5_);}
	.st4{fill:url(#stroke_5_);}
	.ButtonLight{fill:url(#SVGID_1_);}
	.CrossIconStroke{fill:url(#SVGID_2_);}
	.CrossIconFill{fill:url(#SVGID_3_);}
	.BorderGrey{fill:url(#SVGID_4_);}
	.ButtonUpFill{fill:url(#SVGID_5_);}
	.st5{fill:url(#fill_6_);}
	.st6{fill:url(#stroke_6_);}
	.st7{fill:url(#cross-fill_4_);}
	.st8{fill:url(#cross-stroke_4_);}
	.st9{fill:url(#light_6_);}
</style>
<symbol  id="Cross" viewBox="-12.4 -12.35 24.8 24.7">
	<radialGradient id="cross-fill_2_" cx="1.831" cy="-8.2151" r="26.767" gradientUnits="userSpaceOnUse">
		<stop  offset="0" style="stop-color:#EE6D15"/>
		<stop  offset="1" style="stop-color:#D85205"/>
	</radialGradient>
	<polygon id="cross-fill_3_" class="st0" points="-6.8,-11.35 0,-4.55 6.8,-11.35 11.4,-6.75 4.6,-0.05 11.4,6.75 6.8,11.35 0,4.55 
		-6.8,11.35 -11.4,6.75 -4.6,-0.05 -11.4,-6.85 	"/>
	<radialGradient id="cross-stroke_2_" cx="0.5342" cy="-12.2165" r="28.3632" gradientUnits="userSpaceOnUse">
		<stop  offset="0" style="stop-color:#872000"/>
		<stop  offset="1" style="stop-color:#C72E00"/>
	</radialGradient>
	<path id="cross-stroke_3_" class="st1" d="M-6.8-11.35L0-4.55l6.8-6.8l4.6,4.6l-6.8,6.7l6.8,6.8l-4.6,4.6L0,4.55l-6.8,6.8l-4.6-4.6
		l6.8-6.8l-6.8-6.8L-6.8-11.35z M6.8-12.35c-0.26,0-0.51,0.1-0.71,0.29L0-5.96l-6.09-6.09c-0.2-0.2-0.45-0.29-0.71-0.29
		c-0.25,0-0.5,0.09-0.7,0.29l-4.6,4.5c-0.19,0.19-0.3,0.44-0.3,0.71c0,0.27,0.1,0.52,0.29,0.71l6.09,6.09l-6.09,6.09
		c-0.39,0.39-0.39,1.02,0,1.41l4.6,4.6c0.19,0.19,0.44,0.29,0.71,0.29s0.52-0.11,0.71-0.29L0,5.96l6.09,6.09
		c0.19,0.19,0.44,0.29,0.71,0.29l0,0c0.27,0,0.52-0.11,0.71-0.29l4.6-4.6c0.39-0.39,0.39-1.02,0-1.41L6.02-0.04l6.08-5.99
		c0.19-0.19,0.3-0.44,0.3-0.71s-0.1-0.52-0.29-0.71l-4.6-4.6C7.31-12.25,7.06-12.35,6.8-12.35z"/>
</symbol>
<symbol  id="RoundButtonFill" viewBox="0 -48 48 48">
	
		<radialGradient id="fill_5_" cx="5512.6362" cy="-5535.3823" r="26.4436" gradientTransform="matrix(3 0 0 3 -16493.0684 16505.9473)" gradientUnits="userSpaceOnUse">
		<stop  offset="0.85" style="stop-color:#C6C7C8"/>
		<stop  offset="0.89" style="stop-color:#C9CBCC"/>
		<stop  offset="0.9293" style="stop-color:#D5D6D7"/>
		<stop  offset="0.9681" style="stop-color:#E9E9EA"/>
		<stop  offset="1" style="stop-color:#FFFFFF"/>
	</radialGradient>
	<path id="fill_3_" class="st2" d="M24-48C10.7-48,0-37.3,0-24S10.7,0,24,0s24-10.7,24-24S37.3-48,24-48z"/>
</symbol>
<symbol  id="RoundButtonLight" viewBox="0 -19.4 28.74 19.4">
	<linearGradient id="light_5_" gradientUnits="userSpaceOnUse" x1="8.6447" y1="0.4687" x2="16.6403" y2="-19.9454">
		<stop  offset="0" style="stop-color:#FFFFFF;stop-opacity:0"/>
		<stop  offset="1" style="stop-color:#FFFFFF;stop-opacity:0.3"/>
	</linearGradient>
	<path id="light_2_" class="st3" d="M28.74-11.8C27.47-5.08,21.58,0,14.5,0C6.49,0,0-6.49,0-14.5c0-1.72,0.32-3.37,0.87-4.9
		C9.42-15.26,18.82-12.63,28.74-11.8z"/>
</symbol>
<symbol  id="RoundButtonStroke" viewBox="-24 -24 48 48">
	
		<linearGradient id="stroke_5_" gradientUnits="userSpaceOnUse" x1="-59340.7539" y1="59538.7734" x2="-59340.7539" y2="59142.7344" gradientTransform="matrix(0.1212 0 0 0.1212 7192.0991 -7192.0996)">
		<stop  offset="0" style="stop-color:#DEDEDE"/>
		<stop  offset="1" style="stop-color:#6E6E6E"/>
	</linearGradient>
	<path id="stroke_2_" class="st4" d="M0-24c-13.3,0-24,10.7-24,24s10.7,24,24,24S24,13.3,24,0S13.3-24,0-24z M23,0
		c0,12.7-10.3,23-23,23S-23,12.7-23,0s10.3-23,23-23S23-12.7,23,0z"/>
</symbol>
<linearGradient id="SVGID_1_" gradientUnits="userSpaceOnUse" x1="0" y1="0" x2="0.3647" y2="0.9311">
	<stop  offset="0" style="stop-color:#FFFFFF;stop-opacity:0"/>
	<stop  offset="1" style="stop-color:#FFFFFF;stop-opacity:0.3"/>
</linearGradient>
<radialGradient id="SVGID_2_" cx="0" cy="0" r="1" gradientUnits="userSpaceOnUse">
	<stop  offset="0" style="stop-color:#872000"/>
	<stop  offset="1" style="stop-color:#C72E00"/>
</radialGradient>
<radialGradient id="SVGID_3_" cx="0" cy="0" r="1" gradientUnits="userSpaceOnUse">
	<stop  offset="0" style="stop-color:#EE6D15"/>
	<stop  offset="1" style="stop-color:#D85205"/>
</radialGradient>
<linearGradient id="SVGID_4_" gradientUnits="userSpaceOnUse" x1="0" y1="0" x2="4.489659e-011" y2="1">
	<stop  offset="0" style="stop-color:#DEDEDE"/>
	<stop  offset="1" style="stop-color:#6E6E6E"/>
</linearGradient>
<radialGradient id="SVGID_5_" cx="0" cy="0" r="1" gradientUnits="userSpaceOnUse">
	<stop  offset="0.85" style="stop-color:#C6C7C8"/>
	<stop  offset="0.89" style="stop-color:#C9CBCC"/>
	<stop  offset="0.9293" style="stop-color:#D5D6D7"/>
	<stop  offset="0.9681" style="stop-color:#E9E9EA"/>
	<stop  offset="1" style="stop-color:#FFFFFF"/>
</radialGradient>
<g id="CloseButton">
	<g id="fill_1_">
		
			<radialGradient id="fill_6_" cx="67.9541" cy="90.7214" r="26.4436" gradientTransform="matrix(3 0 0 3 -158.9313 -171.9995)" gradientUnits="userSpaceOnUse">
			<stop  offset="0.85" style="stop-color:#C6C7C8"/>
			<stop  offset="0.89" style="stop-color:#C9CBCC"/>
			<stop  offset="0.9293" style="stop-color:#D5D6D7"/>
			<stop  offset="0.9681" style="stop-color:#E9E9EA"/>
			<stop  offset="1" style="stop-color:#FFFFFF"/>
		</radialGradient>
		<path id="fill_2_" class="st5" d="M24,48C10.7,48,0,37.3,0,24S10.7,0,24,0s24,10.7,24,24S37.3,48,24,48z"/>
	</g>
	<g id="stroke_1_">
		
			<linearGradient id="stroke_6_" gradientUnits="userSpaceOnUse" x1="74.7558" y1="-123.2653" x2="74.7558" y2="272.7735" gradientTransform="matrix(0.1212 0 0 0.1212 14.9396 14.9398)">
			<stop  offset="0" style="stop-color:#DEDEDE"/>
			<stop  offset="1" style="stop-color:#6E6E6E"/>
		</linearGradient>
		<path id="stroke_4_" class="st6" d="M24,48C10.7,48,0,37.3,0,24S10.7,0,24,0s24,10.7,24,24S37.3,48,24,48z M47,24
			C47,11.3,36.7,1,24,1S1,11.3,1,24s10.3,23,23,23S47,36.7,47,24z"/>
	</g>
	<g id="icon_2_">
		<radialGradient id="cross-fill_4_" cx="25.831" cy="32.2151" r="26.767" gradientUnits="userSpaceOnUse">
			<stop  offset="0" style="stop-color:#EE6D15"/>
			<stop  offset="1" style="stop-color:#D85205"/>
		</radialGradient>
		<polygon id="cross-fill_1_" class="st7" points="17.2,35.35 24,28.55 30.8,35.35 35.4,30.75 28.6,24.05 35.4,17.25 30.8,12.65 
			24,19.45 17.2,12.65 12.6,17.25 19.4,24.05 12.6,30.85 		"/>
		<radialGradient id="cross-stroke_4_" cx="24.5342" cy="36.2165" r="28.3632" gradientUnits="userSpaceOnUse">
			<stop  offset="0" style="stop-color:#872000"/>
			<stop  offset="1" style="stop-color:#C72E00"/>
		</radialGradient>
		<path id="cross-stroke_1_" class="st8" d="M17.2,35.35l6.8-6.8l6.8,6.8l4.6-4.6l-6.8-6.7l6.8-6.8l-4.6-4.6l-6.8,6.8l-6.8-6.8
			l-4.6,4.6l6.8,6.8l-6.8,6.8L17.2,35.35z M30.8,36.35c-0.26,0-0.51-0.1-0.71-0.29L24,29.96l-6.09,6.09
			c-0.2,0.2-0.45,0.29-0.71,0.29c-0.25,0-0.5-0.09-0.7-0.29l-4.6-4.5c-0.19-0.19-0.3-0.44-0.3-0.71c0-0.27,0.1-0.52,0.29-0.71
			l6.09-6.09l-6.09-6.09c-0.39-0.39-0.39-1.02,0-1.41l4.6-4.6c0.19-0.19,0.44-0.29,0.71-0.29s0.52,0.11,0.71,0.29L24,18.04
			l6.09-6.09c0.19-0.19,0.44-0.29,0.71-0.29l0,0c0.27,0,0.52,0.11,0.71,0.29l4.6,4.6c0.39,0.39,0.39,1.02,0,1.41l-6.09,6.09
			l6.08,5.99c0.19,0.19,0.3,0.44,0.3,0.71s-0.1,0.52-0.29,0.71l-4.6,4.6C31.31,36.25,31.06,36.35,30.8,36.35z"/>
	</g>
	<g id="light_1_">
		<linearGradient id="light_6_" gradientUnits="userSpaceOnUse" x1="18.1447" y1="9.0313" x2="26.1403" y2="29.4454">
			<stop  offset="0" style="stop-color:#FFFFFF;stop-opacity:0"/>
			<stop  offset="1" style="stop-color:#FFFFFF;stop-opacity:0.3"/>
		</linearGradient>
		<path id="light_4_" class="st9" d="M38.24,21.3C36.97,14.58,31.08,9.5,24,9.5C15.99,9.5,9.5,15.99,9.5,24
			c0,1.72,0.32,3.37,0.87,4.9C18.92,24.76,28.32,22.13,38.24,21.3z"/>
	</g>
</g>
<use xlink:href="#RoundButtonStroke"  width="48" height="48" x="-24" y="-24" transform="matrix(1 0 0 -1 24 24)" style="overflow:visible;"/>
</svg>
