<?xml version="1.0" encoding="utf-8"?>
<!-- Generator: Adobe Illustrator 13.0.0, SVG Export Plug-In . SVG Version: 6.00 Build 14948)  -->
<!DOCTYPE svg PUBLIC "-//W3C//DTD SVG 1.1//EN" "http://www.w3.org/Graphics/SVG/1.1/DTD/svg11.dtd">
<svg version="1.1" xmlns="http://www.w3.org/2000/svg" xmlns:xlink="http://www.w3.org/1999/xlink" x="0px" y="0px" width="1000px"
	 height="1000px" viewBox="0 0 1000 1000" enable-background="new 0 0 1000 1000" xml:space="preserve">
<g id="Calque_3" display="none">
	<path id="icon_1_" display="inline" d="M20.833-82.292v208.333H0V42.708h-41.667v41.667l-62.5-62.5l62.5-62.5V1.042H0v-83.333
		H20.833 M62.5-82.292V1.042h41.667v-41.667l62.5,62.5l-62.5,62.5V42.708H62.5v83.333H41.667V-82.292H62.5"/>
	<path id="outline_1_" display="inline" fill="#FFFFFF" d="M83.333-95.313L200.521,20.833L83.333,136.979v9.896H-20.833V137.5
		L-135.417,21.875L-20.833-93.75v-9.375H83.333V-95.313"/>
</g>
<g id="Calque_2">
	<g display="none">
		<defs>
			<rect id="SVGID_1_" x="-3.583" y="996.986" width="62.69" height="24.574"/>
		</defs>
		<clipPath id="SVGID_2_" display="inline">
			<use xlink:href="#SVGID_1_"  overflow="visible"/>
		</clipPath>
		<g transform="matrix(1 0 0 1 1.082346e-005 -6.202894e-005)" display="inline" opacity="0.59" clip-path="url(#SVGID_2_)">
			
				<image overflow="visible" width="1366" height="768" xlink:href="88EED9E9.jpg"  transform="matrix(0.1935 0 0 0.1935 -127.7046 934.2002)">
			</image>
		</g>
	</g>
	<rect x="-0.5" y="999.5" opacity="0.1" width="22" height="22"/>
	<g>
		<polygon points="3.5,1010.5 3.5,1007.5 4.5,1007.5 4.5,1006.5 7.5,1006.5 7.5,1005.5 9.5,1005.5 9.5,1006.5 12.5,1006.5 
			12.5,1007.5 14.5,1007.5 14.5,1008.5 15.5,1008.5 15.5,1009.5 16.5,1009.5 16.5,1016.5 15.5,1016.5 15.5,1019.5 14.5,1019.5 
			14.5,1022.5 4.5,1022.5 4.5,1019.5 3.5,1019.5 3.5,1017.5 2.5,1017.5 2.5,1015.437 1.5,1015.437 1.5,1011.5 2.5,1011.5 
			2.5,1010.5 		"/>
		<polygon fill="#FFFFFF" points="2.5,1011.5 3.5,1011.5 3.5,1014.5 4.5,1014.5 4.5,1007.5 6.5,1007.5 6.5,1010.5 7.5,1010.5 
			7.5,1006.5 9.505,1006.5 9.5,1010.5 10.5,1010.5 10.5,1007.5 12.5,1007.5 12.5,1011.5 13.5,1011.5 13.5,1008.5 14.5,1008.5 
			14.5,1009.5 15.5,1009.5 15.5,1016.5 14.5,1016.5 14.5,1019.5 13.5,1019.5 13.5,1021.5 5.5,1021.5 5.5,1019.5 4.5,1019.5 
			4.5,1017.5 3.5,1017.5 3.5,1015.5 2.5,1015.5 		"/>
	</g>
	<g display="none">
		<polygon display="inline" points="4.5,1022.5 4.5,1019.5 3.5,1019.5 3.5,1017.5 2.5,1017.5 2.5,1015.437 1.5,1015.437 1.5,1013.5 
			0.5,1013.5 0.5,1012.5 -0.5,1012.5 -0.5,1009.5 2.5,1009.5 2.5,1010.5 3.5,1010.5 3.5,1003.5 4.5,1003.5 4.527,1002.5 
			7.516,1002.5 7.5,1001.5 9.5,1001.5 9.505,1002.5 10.516,1002.5 10.5,1003.5 13.5,1003.5 13.5,1005.5 15.5,1005.5 15.5,1006.5 
			16.5,1006.5 16.5,1016.5 15.5,1016.5 15.5,1019.5 14.5,1019.5 14.5,1022.5 		"/>
		<polygon display="inline" fill="#FFFFFF" points="0.5,1010.5 2.5,1010.5 2.5,1011.5 3.5,1011.5 3.5,1014.5 4.5,1014.5 4.5,1003.5 
			6.5,1003.5 6.5,1010.5 7.5,1010.5 7.567,1002.5 9.505,1002.5 9.5,1010.5 10.5,1010.5 10.5,1004.5 12.5,1004.5 12.5,1011.5 
			13.5,1011.5 13.5,1006.5 15.5,1006.5 15.5,1016.5 14.5,1016.5 14.5,1019.5 13.5,1019.5 13.5,1021.5 5.5,1021.5 5.5,1019.5 
			4.5,1019.5 4.5,1017.5 3.5,1017.5 3.5,1015.5 2.5,1015.437 2.5,1013.5 1.5,1013.5 1.5,1012.5 0.5,1012.5 		"/>
	</g>
	<g display="none">
		<polygon display="inline" points="4.5,1022.5 4.5,1019.5 3.5,1019.5 3.5,1017.5 2.5,1017.5 2.5,1015.437 1.5,1015.437 1.5,1013.5 
			0.5,1013.5 0.5,1012.5 -0.5,1012.5 -0.5,1009.5 2.5,1009.5 2.5,1010.5 3.5,1010.5 3.5,1007.5 4.5,1007.5 4.5,1006.5 7.5,1006.5 
			7.5,1005.5 9.5,1005.5 9.5,1006.5 12.5,1006.5 12.5,1007.5 14.5,1007.5 14.5,1008.5 15.5,1008.5 15.5,1009.5 16.5,1009.5 
			16.5,1016.5 15.5,1016.5 15.5,1019.5 14.5,1019.5 14.5,1022.5 		"/>
		<polygon display="inline" fill="#FFFFFF" points="15.5,1016.5 14.5,1016.5 14.5,1019.5 13.5,1019.5 13.5,1021.5 5.5,1021.5 
			5.5,1019.5 4.5,1019.5 4.5,1017.5 3.5,1017.5 3.5,1015.5 2.5,1015.437 2.5,1013.5 1.5,1013.5 1.5,1012.5 0.5,1012.5 0.5,1010.5 
			2.5,1010.5 2.5,1011.5 3.5,1011.5 3.5,1014.5 4.5,1014.5 4.5,1007.5 6.5,1007.5 6.5,1010.5 7.5,1010.5 7.567,1006.5 9.505,1006.5 
			9.5,1010.5 10.5,1010.5 10.5,1007.5 12.5,1007.5 12.5,1011.5 13.5,1011.5 13.5,1008.5 14.5,1008.5 14.5,1009.5 15.5,1009.5 		"/>
	</g>
</g>
</svg>
