<?xml version="1.0" encoding="utf-8"?>
<!-- Generator: Adobe Illustrator 18.1.1, SVG Export Plug-In . SVG Version: 6.00 Build 0)  -->
<svg version="1.1" id="Calque_1" xmlns="http://www.w3.org/2000/svg" xmlns:xlink="http://www.w3.org/1999/xlink" x="0px" y="0px"
	 viewBox="0 16 100 100" style="enable-background:new 0 16 100 100;" xml:space="preserve">
<style type="text/css">
	.st0{fill:url(#cross-fill_1_);}
	.st1{fill:url(#cross-stroke_1_);}
	.st2{fill:url(#fill_7_);}
	.st3{fill:url(#focus_1_);}
	.st4{fill:url(#SVGID_1_);}
	.st5{fill:url(#SVGID_2_);}
	.st6{fill:url(#SVGID_3_);}
	.st7{fill:url(#SVGID_4_);}
	.st8{fill:url(#fill_8_);}
	.st9{fill:url(#light_6_);}
	.st10{fill:url(#stroke_6_);}
	.ButtonLight{fill:url(#SVGID_5_);}
	.CrossIconFill{fill:url(#SVGID_6_);}
	.FocusStroke{fill:url(#SVGID_7_);}
	.CrossIconStroke{fill:url(#SVGID_8_);}
	.ButtonUpFill{fill:url(#SVGID_9_);}
	.ButtonDownFill{fill:url(#SVGID_10_);}
	.BorderGrey{fill:url(#SVGID_11_);}
	.FillGrey{fill:url(#SVGID_12_);}
</style>
<symbol  id="CloseButton" viewBox="0 -48 48 48">
	
		<use xlink:href="#RoundButtonFill"  width="48" height="48" id="fill_4_" x="0" y="-48" transform="matrix(1 0 0 1 -3.255208e-004 -1.030528e-004)" style="overflow:visible;"/>
	
		<use xlink:href="#RoundButtonStroke"  width="48" height="48" id="stroke_3_" x="-24" y="-24" transform="matrix(1 0 0 1 23.9998 -24.0001)" style="overflow:visible;"/>
	
		<use xlink:href="#Cross"  width="24.8" height="24.7" id="icon_1_" x="-12.4" y="-12.35" transform="matrix(1 0 0 1 23.9998 -24.0001)" style="overflow:visible;"/>
	
		<use xlink:href="#RoundButtonLight"  width="28.74" height="19.4" id="light_3_" x="0" y="-19.4" transform="matrix(1 0 0 1 9.4998 -9.5001)" style="overflow:visible;"/>
</symbol>
<symbol  id="Cross" viewBox="-12.4 -12.35 24.8 24.7">
	<radialGradient id="cross-fill_1_" cx="1.831" cy="-8.2151" r="26.767" gradientUnits="userSpaceOnUse">
		<stop  offset="0" style="stop-color:#EE6D15"/>
		<stop  offset="1" style="stop-color:#D85205"/>
	</radialGradient>
	<polygon id="cross-fill_3_" class="st0" points="-6.8,-11.35 0,-4.55 6.8,-11.35 11.4,-6.75 4.6,-0.05 11.4,6.75 6.8,11.35 0,4.55 
		-6.8,11.35 -11.4,6.75 -4.6,-0.05 -11.4,-6.85 	"/>
	<radialGradient id="cross-stroke_1_" cx="0.5342" cy="-12.2165" r="28.3632" gradientUnits="userSpaceOnUse">
		<stop  offset="0" style="stop-color:#872000"/>
		<stop  offset="1" style="stop-color:#C72E00"/>
	</radialGradient>
	<path id="cross-stroke_3_" class="st1" d="M-6.8-11.35L0-4.55l6.8-6.8l4.6,4.6l-6.8,6.7l6.8,6.8l-4.6,4.6L0,4.55l-6.8,6.8l-4.6-4.6
		l6.8-6.8l-6.8-6.8L-6.8-11.35z M6.8-12.35c-0.26,0-0.51,0.1-0.71,0.29L0-5.96l-6.09-6.09c-0.2-0.2-0.45-0.29-0.71-0.29
		c-0.25,0-0.5,0.09-0.7,0.29l-4.6,4.5c-0.19,0.19-0.3,0.44-0.3,0.71c0,0.27,0.1,0.52,0.29,0.71l6.09,6.09l-6.09,6.09
		c-0.39,0.39-0.39,1.02,0,1.41l4.6,4.6c0.19,0.19,0.44,0.29,0.71,0.29s0.52-0.11,0.71-0.29L0,5.96l6.09,6.09
		c0.19,0.19,0.44,0.29,0.71,0.29l0,0c0.27,0,0.52-0.11,0.71-0.29l4.6-4.6c0.39-0.39,0.39-1.02,0-1.41L6.02-0.04l6.08-5.99
		c0.19-0.19,0.3-0.44,0.3-0.71s-0.1-0.52-0.29-0.71l-4.6-4.6C7.31-12.25,7.06-12.35,6.8-12.35z"/>
</symbol>
<symbol  id="DownSkin" viewBox="-24 -24 48 48">
	
		<radialGradient id="fill_7_" cx="5497.7417" cy="-5501.9551" r="8.5121" gradientTransform="matrix(3 0 0 2.5628 -16493.0684 14100.5742)" gradientUnits="userSpaceOnUse">
		<stop  offset="0.9037" style="stop-color:#FFFFFF"/>
		<stop  offset="0.9112" style="stop-color:#F8F8F8"/>
		<stop  offset="0.9462" style="stop-color:#DCDDDE"/>
		<stop  offset="0.9769" style="stop-color:#CCCDCE"/>
		<stop  offset="1" style="stop-color:#C6C7C8"/>
	</radialGradient>
	<path id="fill_2_" class="st2" d="M0-24c-13.3,0-24,10.7-24,24s10.7,24,24,24S24,13.3,24,0S13.3-24,0-24z"/>
</symbol>
<symbol  id="FocusSkin" viewBox="-24 -24 48 48">
	<linearGradient id="focus_1_" gradientUnits="userSpaceOnUse" x1="-1.077751e-009" y1="23.9999" x2="1.077281e-009" y2="-23.9999">
		<stop  offset="0" style="stop-color:#1A28C4"/>
		<stop  offset="1" style="stop-color:#4A66F0"/>
	</linearGradient>
	<path id="focus_2_" class="st3" d="M0-24c-13.3,0-24,10.7-24,24s10.7,24,24,24S24,13.3,24,0S13.3-24,0-24z M23,0
		c0,12.7-10.3,23-23,23S-23,12.7-23,0s10.3-23,23-23S23-12.7,23,0z"/>
</symbol>
<symbol  id="NextArrow" viewBox="-7.91 -13.46 23 26.92">
	<g>
		
			<linearGradient id="SVGID_1_" gradientUnits="userSpaceOnUse" x1="16412.4121" y1="13.4603" x2="16412.4121" y2="-13.462" gradientTransform="matrix(-1 0 0 1 16416 0)">
			<stop  offset="0" style="stop-color:#DEDEDE"/>
			<stop  offset="1" style="stop-color:#6E6E6E"/>
		</linearGradient>
		<path class="st4" d="M14.12-1.71l-19-11.46c-1.33-0.8-3.03,0.16-3.03,1.71v22.92c0,1.56,1.7,2.52,3.03,1.71l19-11.46
			C15.41,0.93,15.41-0.94,14.12-1.71z M-5.91-12.46c0.18,0,0.35,0.05,0.51,0.15l19,11.46c0.44,0.26,0.48,0.69,0.48,0.86
			c0,0.17-0.05,0.59-0.48,0.86l-19,11.46c-0.16,0.1-0.33,0.15-0.51,0.15c-0.48,0-1-0.38-1-1v-22.92
			C-6.91-12.08-6.39-12.46-5.91-12.46z"/>
		<radialGradient id="SVGID_2_" cx="5.274" cy="-9.0201" r="19.0659" gradientUnits="userSpaceOnUse">
			<stop  offset="0" style="stop-color:#A7A8AA"/>
			<stop  offset="1" style="stop-color:#707173"/>
		</radialGradient>
		<path class="st5" d="M-5.91-12.46c0.18,0,0.35,0.05,0.51,0.15l19,11.46c0.44,0.26,0.48,0.69,0.48,0.86c0,0.17-0.05,0.59-0.48,0.86
			l-19,11.46c-0.16,0.1-0.33,0.15-0.51,0.15c-0.48,0-1-0.38-1-1v-22.92C-6.91-12.08-6.39-12.46-5.91-12.46z"/>
	</g>
</symbol>
<symbol  id="NextButton" viewBox="0 -48 48 48">
	
		<use xlink:href="#RoundButtonFill"  width="48" height="48" id="fill_6_" x="0" y="-48" transform="matrix(1 0 0 1 -3.255208e-004 -1.030528e-004)" style="overflow:visible;"/>
	
		<use xlink:href="#RoundButtonStroke"  width="48" height="48" id="stroke_5_" x="-24" y="-24" transform="matrix(1 0 0 1 23.9998 -24.0001)" style="overflow:visible;"/>
	
		<use xlink:href="#NextArrow"  width="23" height="26.92" id="icon_3_" x="-7.91" y="-13.46" transform="matrix(1 0 0 1 24.0002 -23.9996)" style="overflow:visible;"/>
	
		<use xlink:href="#RoundButtonLight"  width="28.74" height="19.4" id="light_5_" x="0" y="-19.4" transform="matrix(1 0 0 1 9.4998 -9.5001)" style="overflow:visible;"/>
</symbol>
<symbol  id="PrevArrow" viewBox="-15.09 -13.46 23 26.92">
	<g>
		
			<linearGradient id="SVGID_3_" gradientUnits="userSpaceOnUse" x1="-193.0863" y1="13.4603" x2="-193.0863" y2="-13.462" gradientTransform="matrix(1 0 0 1 189.4988 0)">
			<stop  offset="0" style="stop-color:#DEDEDE"/>
			<stop  offset="1" style="stop-color:#6E6E6E"/>
		</linearGradient>
		<path class="st6" d="M-14.12,1.71l19,11.46c1.33,0.8,3.03-0.16,3.03-1.71v-22.92c0-1.56-1.7-2.52-3.03-1.71l-19,11.46
			C-15.41-0.94-15.41,0.93-14.12,1.71z M6.91-11.46v22.92c0,0.62-0.52,1-1,1c-0.18,0-0.35-0.05-0.51-0.15l-19-11.46
			c-0.44-0.26-0.48-0.69-0.48-0.86c0-0.17,0.05-0.59,0.48-0.86l19-11.46c0.16-0.1,0.33-0.15,0.51-0.15
			C6.39-12.46,6.91-12.08,6.91-11.46z"/>
		
			<radialGradient id="SVGID_4_" cx="16610.7734" cy="-9.0201" r="19.0659" gradientTransform="matrix(-1 0 0 1 16605.5 0)" gradientUnits="userSpaceOnUse">
			<stop  offset="0" style="stop-color:#A7A8AA"/>
			<stop  offset="1" style="stop-color:#707173"/>
		</radialGradient>
		<path class="st7" d="M5.91-12.46c-0.18,0-0.35,0.05-0.51,0.15l-19,11.46c-0.44,0.26-0.48,0.69-0.48,0.86
			c0,0.17,0.05,0.59,0.48,0.86l19,11.46c0.16,0.1,0.33,0.15,0.51,0.15c0.48,0,1-0.38,1-1v-22.92C6.91-12.08,6.39-12.46,5.91-12.46z"
			/>
	</g>
</symbol>
<symbol  id="PrevButton" viewBox="0 -48 48 48">
	
		<use xlink:href="#RoundButtonFill"  width="48" height="48" id="fill_5_" x="0" y="-48" transform="matrix(1 0 0 1 -3.255208e-004 -1.030528e-004)" style="overflow:visible;"/>
	
		<use xlink:href="#RoundButtonStroke"  width="48" height="48" id="stroke_4_" x="-24" y="-24" transform="matrix(1 0 0 1 23.9998 -24.0001)" style="overflow:visible;"/>
	
		<use xlink:href="#PrevArrow"  width="23" height="26.92" id="icon_2_" x="-15.09" y="-13.46" transform="matrix(1 0 0 1 24.0004 -23.9997)" style="overflow:visible;"/>
	
		<use xlink:href="#RoundButtonLight"  width="28.74" height="19.4" id="light_4_" x="0" y="-19.4" transform="matrix(1 0 0 1 9.4998 -9.5001)" style="overflow:visible;"/>
</symbol>
<symbol  id="RoundButtonFill" viewBox="0 -48 48 48">
	
		<radialGradient id="fill_8_" cx="5512.6362" cy="-5535.3823" r="26.4436" gradientTransform="matrix(3 0 0 3 -16493.0684 16505.9473)" gradientUnits="userSpaceOnUse">
		<stop  offset="0.85" style="stop-color:#C6C7C8"/>
		<stop  offset="0.89" style="stop-color:#C9CBCC"/>
		<stop  offset="0.9293" style="stop-color:#D5D6D7"/>
		<stop  offset="0.9681" style="stop-color:#E9E9EA"/>
		<stop  offset="1" style="stop-color:#FFFFFF"/>
	</radialGradient>
	<path id="fill_3_" class="st8" d="M24-48C10.7-48,0-37.3,0-24S10.7,0,24,0s24-10.7,24-24S37.3-48,24-48z"/>
</symbol>
<symbol  id="RoundButtonLight" viewBox="0 -19.4 28.74 19.4">
	<linearGradient id="light_6_" gradientUnits="userSpaceOnUse" x1="8.6447" y1="0.4687" x2="16.6403" y2="-19.9454">
		<stop  offset="0" style="stop-color:#FFFFFF;stop-opacity:0"/>
		<stop  offset="1" style="stop-color:#FFFFFF;stop-opacity:0.3"/>
	</linearGradient>
	<path id="light_2_" class="st9" d="M28.74-11.8C27.47-5.08,21.58,0,14.5,0C6.49,0,0-6.49,0-14.5c0-1.72,0.32-3.37,0.87-4.9
		C9.42-15.26,18.82-12.63,28.74-11.8z"/>
</symbol>
<symbol  id="RoundButtonStroke" viewBox="-24 -24 48 48">
	
		<linearGradient id="stroke_6_" gradientUnits="userSpaceOnUse" x1="-59340.7539" y1="59538.7734" x2="-59340.7539" y2="59142.7344" gradientTransform="matrix(0.1212 0 0 0.1212 7192.0991 -7192.0996)">
		<stop  offset="0" style="stop-color:#DEDEDE"/>
		<stop  offset="1" style="stop-color:#6E6E6E"/>
	</linearGradient>
	<path id="stroke_2_" class="st10" d="M0-24c-13.3,0-24,10.7-24,24s10.7,24,24,24S24,13.3,24,0S13.3-24,0-24z M23,0
		c0,12.7-10.3,23-23,23S-23,12.7-23,0s10.3-23,23-23S23-12.7,23,0z"/>
</symbol>
<linearGradient id="SVGID_5_" gradientUnits="userSpaceOnUse" x1="0" y1="16" x2="0.3647" y2="16.9311">
	<stop  offset="0" style="stop-color:#FFFFFF;stop-opacity:0"/>
	<stop  offset="1" style="stop-color:#FFFFFF;stop-opacity:0.3"/>
</linearGradient>
<radialGradient id="SVGID_6_" cx="0" cy="16" r="1" gradientUnits="userSpaceOnUse">
	<stop  offset="0" style="stop-color:#EE6D15"/>
	<stop  offset="1" style="stop-color:#D85205"/>
</radialGradient>
<linearGradient id="SVGID_7_" gradientUnits="userSpaceOnUse" x1="0" y1="16" x2="4.489659e-011" y2="17">
	<stop  offset="0" style="stop-color:#1A28C4"/>
	<stop  offset="1" style="stop-color:#4A66F0"/>
</linearGradient>
<radialGradient id="SVGID_8_" cx="0" cy="16" r="1" gradientUnits="userSpaceOnUse">
	<stop  offset="0" style="stop-color:#872000"/>
	<stop  offset="1" style="stop-color:#C72E00"/>
</radialGradient>
<radialGradient id="SVGID_9_" cx="0" cy="16" r="1" gradientUnits="userSpaceOnUse">
	<stop  offset="0.85" style="stop-color:#C6C7C8"/>
	<stop  offset="0.89" style="stop-color:#C9CBCC"/>
	<stop  offset="0.9293" style="stop-color:#D5D6D7"/>
	<stop  offset="0.9681" style="stop-color:#E9E9EA"/>
	<stop  offset="1" style="stop-color:#FFFFFF"/>
</radialGradient>
<radialGradient id="SVGID_10_" cx="0" cy="16" r="1" gradientTransform="matrix(1 0 0 0.8543 0 2.3317)" gradientUnits="userSpaceOnUse">
	<stop  offset="0.9037" style="stop-color:#FFFFFF"/>
	<stop  offset="0.9112" style="stop-color:#F8F8F8"/>
	<stop  offset="0.9462" style="stop-color:#DCDDDE"/>
	<stop  offset="0.9769" style="stop-color:#CCCDCE"/>
	<stop  offset="1" style="stop-color:#C6C7C8"/>
</radialGradient>
<linearGradient id="SVGID_11_" gradientUnits="userSpaceOnUse" x1="0" y1="16" x2="4.489659e-011" y2="17">
	<stop  offset="0" style="stop-color:#DEDEDE"/>
	<stop  offset="1" style="stop-color:#6E6E6E"/>
</linearGradient>
<radialGradient id="SVGID_12_" cx="0" cy="16" r="1" gradientUnits="userSpaceOnUse">
	<stop  offset="0" style="stop-color:#A7A8AA"/>
	<stop  offset="1" style="stop-color:#707173"/>
</radialGradient>
<g>
	
		<use xlink:href="#DownSkin"  width="48" height="48" x="-24" y="-24" transform="matrix(1 0 0 -1 24.0008 39.9999)" style="overflow:visible;"/>
	
		<use xlink:href="#FocusSkin"  width="48" height="48" x="-24" y="-24" transform="matrix(1 0 0 -1 24.0008 40)" style="overflow:visible;"/>
	
		<use xlink:href="#CloseButton"  width="48" height="48" x="0" y="-48" transform="matrix(1 0 0 -1 50.0007 15.9998)" style="overflow:visible;"/>
	
		<use xlink:href="#PrevButton"  width="48" height="48" x="0" y="-48" transform="matrix(1 0 0 -1 6.510417e-004 65.9998)" style="overflow:visible;"/>
	
		<use xlink:href="#NextButton"  width="48" height="48" x="0" y="-48" transform="matrix(1 0 0 -1 50.0007 65.9998)" style="overflow:visible;"/>
</g>
</svg>
