<?xml version="1.0" encoding="utf-8"?>
<!-- Generator: Adobe Illustrator 18.1.1, SVG Export Plug-In . SVG Version: 6.00 Build 0)  -->
<svg version="1.1" id="skin" xmlns="http://www.w3.org/2000/svg" xmlns:xlink="http://www.w3.org/1999/xlink" x="0px" y="0px"
	 viewBox="0 0 48 48" style="enable-background:new 0 0 48 48;" xml:space="preserve">
<style type="text/css">
	.ButtonLight{fill:url(#SVGID_1_);}
	.CrossIconStroke{fill:url(#SVGID_2_);}
	.CrossIconFill{fill:url(#SVGID_3_);}
	.BorderGrey{fill:url(#SVGID_4_);}
	.ButtonUpFill{fill:url(#SVGID_5_);}
	.FillGrey{fill:url(#SVGID_6_);}
	.Focus{fill:url(#SVGID_7_);}
	.ButtonDownFill{fill:url(#SVGID_8_);}
	.st0{fill:url(#fill_3_);}
	.st1{fill:url(#stroke_3_);}
	.st2{fill:url(#cross-fill_2_);}
	.st3{fill:url(#cross-stroke_2_);}
	.st4{fill:url(#SVGID_9_);}
	.st5{fill:url(#SVGID_10_);}
	.st6{fill:url(#SVGID_11_);}
	.st7{fill:url(#SVGID_12_);}
	.st8{fill:url(#light_1_);}
	.st9{fill:url(#focus_1_);}
	.st10{fill:url(#fill-down_1_);}
</style>
<linearGradient id="SVGID_1_" gradientUnits="userSpaceOnUse" x1="0" y1="0" x2="0.3647" y2="0.9311">
	<stop  offset="0" style="stop-color:#FFFFFF;stop-opacity:0"/>
	<stop  offset="1" style="stop-color:#FFFFFF;stop-opacity:0.3"/>
</linearGradient>
<radialGradient id="SVGID_2_" cx="0" cy="0" r="1" gradientUnits="userSpaceOnUse">
	<stop  offset="0" style="stop-color:#872000"/>
	<stop  offset="1" style="stop-color:#C72E00"/>
</radialGradient>
<radialGradient id="SVGID_3_" cx="0" cy="0" r="1" gradientUnits="userSpaceOnUse">
	<stop  offset="0" style="stop-color:#EE6D15"/>
	<stop  offset="1" style="stop-color:#D85205"/>
</radialGradient>
<linearGradient id="SVGID_4_" gradientUnits="userSpaceOnUse" x1="0" y1="0" x2="4.489659e-011" y2="1">
	<stop  offset="0" style="stop-color:#DEDEDE"/>
	<stop  offset="1" style="stop-color:#6E6E6E"/>
</linearGradient>
<radialGradient id="SVGID_5_" cx="0" cy="0" r="1" gradientUnits="userSpaceOnUse">
	<stop  offset="0.85" style="stop-color:#C6C7C8"/>
	<stop  offset="0.89" style="stop-color:#C9CBCC"/>
	<stop  offset="0.9293" style="stop-color:#D5D6D7"/>
	<stop  offset="0.9681" style="stop-color:#E9E9EA"/>
	<stop  offset="1" style="stop-color:#FFFFFF"/>
</radialGradient>
<radialGradient id="SVGID_6_" cx="0" cy="0" r="1" gradientUnits="userSpaceOnUse">
	<stop  offset="0" style="stop-color:#A7A8AA"/>
	<stop  offset="1" style="stop-color:#707173"/>
</radialGradient>
<linearGradient id="SVGID_7_" gradientUnits="userSpaceOnUse" x1="0" y1="0" x2="4.489659e-011" y2="-1">
	<stop  offset="0" style="stop-color:#1A28C4"/>
	<stop  offset="1" style="stop-color:#4A66F0"/>
</linearGradient>
<radialGradient id="SVGID_8_" cx="0" cy="0" r="1" gradientTransform="matrix(1 0 0 0.8543 0 0)" gradientUnits="userSpaceOnUse">
	<stop  offset="0.9037" style="stop-color:#FFFFFF"/>
	<stop  offset="0.9112" style="stop-color:#F8F8F8"/>
	<stop  offset="0.9462" style="stop-color:#DCDDDE"/>
	<stop  offset="0.9769" style="stop-color:#CCCDCE"/>
	<stop  offset="1" style="stop-color:#C6C7C8"/>
</radialGradient>
<g id="fill_1_">
	
		<radialGradient id="fill_3_" cx="67.9541" cy="90.7214" r="26.4436" gradientTransform="matrix(3 0 0 3 -158.9313 -171.9995)" gradientUnits="userSpaceOnUse">
		<stop  offset="0.85" style="stop-color:#C6C7C8"/>
		<stop  offset="0.89" style="stop-color:#C9CBCC"/>
		<stop  offset="0.9293" style="stop-color:#D5D6D7"/>
		<stop  offset="0.9681" style="stop-color:#E9E9EA"/>
		<stop  offset="1" style="stop-color:#FFFFFF"/>
	</radialGradient>
	<path id="fill_2_" class="st0" d="M24,48C10.7,48,0,37.3,0,24S10.7,0,24,0s24,10.7,24,24S37.3,48,24,48z"/>
</g>
<g id="stroke_1_">
	
		<linearGradient id="stroke_3_" gradientUnits="userSpaceOnUse" x1="74.7558" y1="-123.2653" x2="74.7558" y2="272.7735" gradientTransform="matrix(0.1212 0 0 0.1212 14.9396 14.9398)">
		<stop  offset="0" style="stop-color:#DEDEDE"/>
		<stop  offset="1" style="stop-color:#6E6E6E"/>
	</linearGradient>
	<path id="stroke_2_" class="st1" d="M24,48C10.7,48,0,37.3,0,24S10.7,0,24,0s24,10.7,24,24S37.3,48,24,48z M47,24
		C47,11.3,36.7,1,24,1S1,11.3,1,24s10.3,23,23,23S47,36.7,47,24z"/>
</g>
<g id="icon_1_">
	<radialGradient id="cross-fill_2_" cx="25.831" cy="32.2151" r="26.767" gradientUnits="userSpaceOnUse">
		<stop  offset="0" style="stop-color:#EE6D15"/>
		<stop  offset="1" style="stop-color:#D85205"/>
	</radialGradient>
	<polygon id="cross-fill_1_" class="st2" points="17.2,35.35 24,28.55 30.8,35.35 35.4,30.75 28.6,24.05 35.4,17.25 30.8,12.65 
		24,19.45 17.2,12.65 12.6,17.25 19.4,24.05 12.6,30.85 	"/>
	<radialGradient id="cross-stroke_2_" cx="24.5342" cy="36.2165" r="28.3632" gradientUnits="userSpaceOnUse">
		<stop  offset="0" style="stop-color:#872000"/>
		<stop  offset="1" style="stop-color:#C72E00"/>
	</radialGradient>
	<path id="cross-stroke_1_" class="st3" d="M17.2,35.35l6.8-6.8l6.8,6.8l4.6-4.6l-6.8-6.7l6.8-6.8l-4.6-4.6l-6.8,6.8l-6.8-6.8
		l-4.6,4.6l6.8,6.8l-6.8,6.8L17.2,35.35z M30.8,36.35c-0.26,0-0.51-0.1-0.71-0.29L24,29.96l-6.09,6.09c-0.2,0.2-0.45,0.29-0.71,0.29
		c-0.25,0-0.5-0.09-0.7-0.29l-4.6-4.5c-0.19-0.19-0.3-0.44-0.3-0.71c0-0.27,0.1-0.52,0.29-0.71l6.09-6.09l-6.09-6.09
		c-0.39-0.39-0.39-1.02,0-1.41l4.6-4.6c0.19-0.19,0.44-0.29,0.71-0.29s0.52,0.11,0.71,0.29L24,18.04l6.09-6.09
		c0.19-0.19,0.44-0.29,0.71-0.29l0,0c0.27,0,0.52,0.11,0.71,0.29l4.6,4.6c0.39,0.39,0.39,1.02,0,1.41l-6.09,6.09l6.08,5.99
		c0.19,0.19,0.3,0.44,0.3,0.71s-0.1,0.52-0.29,0.71l-4.6,4.6C31.31,36.25,31.06,36.35,30.8,36.35z"/>
</g>
<g id="arrowRight">
	
		<linearGradient id="SVGID_9_" gradientUnits="userSpaceOnUse" x1="54.4132" y1="10.54" x2="54.4132" y2="37.4623" gradientTransform="matrix(-1 0 0 1 82.0003 0)">
		<stop  offset="0" style="stop-color:#DEDEDE"/>
		<stop  offset="1" style="stop-color:#6E6E6E"/>
	</linearGradient>
	<path class="st4" d="M38.12,25.71l-19,11.46c-1.33,0.8-3.03-0.16-3.03-1.71V12.54c0-1.56,1.7-2.52,3.03-1.71l19,11.46
		C39.41,23.07,39.41,24.94,38.12,25.71z M18.09,36.46c0.18,0,0.35-0.05,0.51-0.15l19-11.46c0.44-0.26,0.48-0.69,0.48-0.86
		c0-0.17-0.05-0.59-0.48-0.86l-19-11.46c-0.16-0.1-0.33-0.15-0.51-0.15c-0.48,0-1,0.38-1,1v22.92
		C17.09,36.08,17.61,36.46,18.09,36.46z"/>
	<radialGradient id="SVGID_10_" cx="29.2738" cy="33.0204" r="19.0659" gradientUnits="userSpaceOnUse">
		<stop  offset="0" style="stop-color:#A7A8AA"/>
		<stop  offset="1" style="stop-color:#707173"/>
	</radialGradient>
	<path class="st5" d="M18.09,36.46c0.18,0,0.35-0.05,0.51-0.15l19-11.46c0.44-0.26,0.48-0.69,0.48-0.86c0-0.17-0.05-0.59-0.48-0.86
		l-19-11.46c-0.16-0.1-0.33-0.15-0.51-0.15c-0.48,0-1,0.38-1,1v22.92C17.09,36.08,17.61,36.46,18.09,36.46z"/>
</g>
<g id="arrowLeft">
	
		<linearGradient id="SVGID_11_" gradientUnits="userSpaceOnUse" x1="54.4132" y1="10.54" x2="54.4132" y2="37.4623" gradientTransform="matrix(1 0 0 1 -34.001 0)">
		<stop  offset="0" style="stop-color:#DEDEDE"/>
		<stop  offset="1" style="stop-color:#6E6E6E"/>
	</linearGradient>
	<path class="st6" d="M9.88,22.29l19-11.46c1.33-0.8,3.03,0.16,3.03,1.71v22.92c0,1.56-1.7,2.52-3.03,1.71l-19-11.46
		C8.59,24.94,8.59,23.07,9.88,22.29z M30.91,35.46V12.54c0-0.62-0.52-1-1-1c-0.18,0-0.35,0.05-0.51,0.15l-19,11.46
		C9.96,23.41,9.91,23.83,9.91,24c0,0.17,0.05,0.59,0.48,0.86l19,11.46c0.16,0.1,0.33,0.15,0.51,0.15
		C30.39,36.46,30.91,36.08,30.91,35.46z"/>
	
		<radialGradient id="SVGID_12_" cx="29.2738" cy="33.0204" r="19.0659" gradientTransform="matrix(-1 0 0 1 47.9993 0)" gradientUnits="userSpaceOnUse">
		<stop  offset="0" style="stop-color:#A7A8AA"/>
		<stop  offset="1" style="stop-color:#707173"/>
	</radialGradient>
	<path class="st7" d="M29.91,36.46c-0.18,0-0.35-0.05-0.51-0.15l-19-11.46C9.96,24.59,9.91,24.17,9.91,24
		c0-0.17,0.05-0.59,0.48-0.86l19-11.46c0.16-0.1,0.33-0.15,0.51-0.15c0.48,0,1,0.38,1,1v22.92C30.91,36.08,30.39,36.46,29.91,36.46z
		"/>
</g>
<linearGradient id="light_1_" gradientUnits="userSpaceOnUse" x1="18.1447" y1="9.0313" x2="26.1403" y2="29.4454">
	<stop  offset="0" style="stop-color:#FFFFFF;stop-opacity:0"/>
	<stop  offset="1" style="stop-color:#FFFFFF;stop-opacity:0.3"/>
</linearGradient>
<path id="light_2_" class="st8" d="M38.24,21.3C36.97,14.58,31.08,9.5,24,9.5C15.99,9.5,9.5,15.99,9.5,24c0,1.72,0.32,3.37,0.87,4.9
	C18.92,24.76,28.32,22.13,38.24,21.3z"/>
<linearGradient id="focus_1_" gradientUnits="userSpaceOnUse" x1="74.7558" y1="272.7735" x2="74.7558" y2="-123.2653" gradientTransform="matrix(0.1212 0 0 0.1212 14.9396 14.9398)">
	<stop  offset="0" style="stop-color:#1A28C4"/>
	<stop  offset="1" style="stop-color:#4A66F0"/>
</linearGradient>
<path id="focus" class="st9" d="M24,48C10.7,48,0,37.3,0,24S10.7,0,24,0s24,10.7,24,24S37.3,48,24,48z M47,24C47,11.3,36.7,1,24,1
	S1,11.3,1,24s10.3,23,23,23S47,36.7,47,24z"/>
<radialGradient id="fill-down_1_" cx="61.0597" cy="65.2942" r="8.5121" gradientTransform="matrix(3 0 0 2.5628 -158.9313 -143.4538)" gradientUnits="userSpaceOnUse">
	<stop  offset="0.9037" style="stop-color:#FFFFFF"/>
	<stop  offset="0.9112" style="stop-color:#F8F8F8"/>
	<stop  offset="0.9462" style="stop-color:#DCDDDE"/>
	<stop  offset="0.9769" style="stop-color:#CCCDCE"/>
	<stop  offset="1" style="stop-color:#C6C7C8"/>
</radialGradient>
<path id="fill-down" class="st10" d="M24,48C10.7,48,0,37.3,0,24S10.7,0,24,0s24,10.7,24,24S37.3,48,24,48z"/>
</svg>
