<?xml version="1.0" encoding="utf-8"?>
<!-- Generator: Adobe Illustrator 19.2.0, SVG Export Plug-In . SVG Version: 6.00 Build 0)  -->
<svg version="1.1" id="Calque_3" xmlns="http://www.w3.org/2000/svg" xmlns:xlink="http://www.w3.org/1999/xlink" x="0px" y="0px"
	 viewBox="0 0 241.4 153.1" style="enable-background:new 0 0 241.4 153.1;" xml:space="preserve">
<path d="M0,153.1h1V0H0V153.1L0,153.1z M12.3,153.1h1V0h-1V153.1L12.3,153.1z M37,106.3V153h1v-45.7l11.3,11.3v34.5h1v-33.5
	L84,153.1h1.4L25.7,93.7v-16l31,30.8l44.8,44.5l0,0h1.4l-59-58.7l-9.2-9.2l8-8l0.1,0.1l9.6,9.5l66.5,66.2h0.1h1.3h0.1l-67-66.3
	L52,85.2l0.2-0.2l7.8-7.8l0.4,0.4l75.8,75.5l0,0h1.4l0,0L69.5,85.2l0.3-0.3l7.7-7.7l0.4,0.4l75.8,75.4l0,0h1.4l0,0L86.9,85.2
	l0.6-0.6l7.4-7.4l0.4,0.4l46.8,46.6l29,28.8l0,0h1.4l0,0l-27-26.9l-41.2-41l0.4-0.4l7.6-7.5l0.4,0.4l75.7,75.4l0,0h1.4l0,0
	l-68.2-67.9l0.4-0.4l7.7-7.6l76.2,75.8l0,0h1.4l0,0L139.1,85l1-1l7-6.9l63.9,63.6l12.3,12.3l0,0h1.4l0,0l-11.5-11.4l-56.7-56.4
	l0.8-0.8l7.3-7.2l76.2,75.8l0,0h0.5v-0.9l0,0l-67.3-67l0.9-0.8l7.2-7.1l59.3,59l0,0v-1.4l0,0l-49.9-49.7l0.4-0.4l7.6-7.5l41.9,41.7
	l0,0v-1.4l0,0L209,85.2l1-1l7-7l24.5,24.3v-1.4l-23.7-23.6l23.7-23.6v-1.4l-32.1,31.9l-1.1,1l-8-8l41.2-41l0,0V34l0,0l-49.7,49.4
	l-1,1l-8-8l58.6-58.3l0,0v-1.4l0,0l-67.3,67l-0.7,0.7l-8-8l76.1-75.7l0,0V0h-0.6l0,0l-84.4,84l-0.5,0.5l-8-8l50.2-49.9L224.9,0l0,0
	h-1.4l0,0l-27.9,27.8l-56.3,56l-0.7,0.7l-8-8l30.1-29.9L207.4,0l0,0H206l0,0l-46.2,46l-37.9,37.7l-0.8,0.8l-7.1-7l-0.9-0.9L190,0
	l0,0h-1.4l0,0l-84.5,84l-0.5,0.5l-7.4-7.4l-0.6-0.6L172.5,0l0,0h-1.4l0,0L86.6,84.1l-0.4,0.4l-7.8-7.7l-0.2-0.2L155.1,0l0,0h-1.4
	l0,0L69,84.3l-0.2,0.2L61,76.8l-0.3-0.3L137.6,0l0,0h-1.4l0,0L51.6,84.2l-0.3,0.3l-7.9-7.9l-0.1-0.1l19.2-19.1L120.2,0l0,0h-1.4l0,0
	l-58,57.7L33.9,84.5l-8-8L102.8,0l0,0h-1.4l0,0L25.7,75.3V59.4L85.3,0h-1.4L50.3,33.4V0h-1v34.4L38,45.7V0h-1v46.7L25.7,58V0h-1
	v153.1h1v-58L37,106.3L37,106.3z"/>
</svg>
