<?xml version="1.0" encoding="utf-8"?>
<svg version="1.1" id="skin" xmlns="http://www.w3.org/2000/svg" xmlns:xlink="http://www.w3.org/1999/xlink" x="0px" y="0px"
	 viewBox="0 0 48 48" enable-background="new 0 0 48 48" xml:space="preserve">
<g class="fill" id="fill_1_">
	<radialGradient id="fill_3_" cx="67.9541" cy="90.7214" r="26.4436" gradientTransform="matrix(3 0 0 3 -158.9313 -171.9995)" gradientUnits="userSpaceOnUse">
		<stop  offset="0.85" style="stop-color:#C6C7C8"/>
		<stop  offset="0.89" style="stop-color:#C9CBCC"/>
		<stop  offset="0.9293" style="stop-color:#D5D6D7"/>
		<stop  offset="0.9681" style="stop-color:#E9E9EA"/>
		<stop  offset="1" style="stop-color:#FFFFFF"/>
	</radialGradient>
	<path id="fill_2_" fill="url(#fill_3_)" d="M24,48C10.7,48,0,37.3,0,24S10.7,0,24,0s24,10.7,24,24S37.3,48,24,48z"/>
</g>
<g class="stroke" id="stroke_1_">
	
		<linearGradient id="stroke_3_" gradientUnits="userSpaceOnUse" x1="74.7558" y1="-123.2653" x2="74.7558" y2="272.7735" gradientTransform="matrix(0.1212 0 0 0.1212 14.9396 14.9398)">
		<stop  offset="0" style="stop-color:#DEDEDE"/>
		<stop  offset="1" style="stop-color:#6E6E6E"/>
	</linearGradient>
	<path id="stroke_2_" fill="url(#stroke_3_)" d="M24,48C10.7,48,0,37.3,0,24S10.7,0,24,0s24,10.7,24,24S37.3,48,24,48z M47,24
		C47,11.3,36.7,1,24,1S1,11.3,1,24s10.3,23,23,23S47,36.7,47,24z"/>
</g>
<g id="icon_1_">
	<radialGradient id="cross-fill_2_" cx="25.831" cy="32.2151" r="26.767" gradientUnits="userSpaceOnUse">
		<stop  offset="0" style="stop-color:#EE6D15"/>
		<stop  offset="1" style="stop-color:#D85205"/>
	</radialGradient>
	<polygon id="cross-fill_1_" fill="url(#cross-fill_2_)" points="17.2,35.35 24,28.55 30.8,35.35 35.4,30.75 28.6,24.05 35.4,17.25 
		30.8,12.65 24,19.45 17.2,12.65 12.6,17.25 19.4,24.05 12.6,30.85 	"/>
	<radialGradient id="cross-stroke_2_" cx="24.5342" cy="36.2165" r="28.3632" gradientUnits="userSpaceOnUse">
		<stop  offset="0" style="stop-color:#872000"/>
		<stop  offset="1" style="stop-color:#C72E00"/>
	</radialGradient>
	<path id="cross-stroke_1_" fill="url(#cross-stroke_2_)" d="M17.2,35.35l6.8-6.8l6.8,6.8l4.6-4.6l-6.8-6.7l6.8-6.8l-4.6-4.6
		l-6.8,6.8l-6.8-6.8l-4.6,4.6l6.8,6.8l-6.8,6.8L17.2,35.35z M30.8,36.35c-0.26,0-0.51-0.1-0.71-0.29L24,29.96l-6.09,6.09
		c-0.2,0.2-0.45,0.29-0.71,0.29c-0.25,0-0.5-0.09-0.7-0.29l-4.6-4.5c-0.19-0.19-0.3-0.44-0.3-0.71c0-0.27,0.1-0.52,0.29-0.71
		l6.09-6.09l-6.09-6.09c-0.39-0.39-0.39-1.02,0-1.41l4.6-4.6c0.19-0.19,0.44-0.29,0.71-0.29s0.52,0.11,0.71,0.29L24,18.04l6.09-6.09
		c0.19-0.19,0.44-0.29,0.71-0.29l0,0c0.27,0,0.52,0.11,0.71,0.29l4.6,4.6c0.39,0.39,0.39,1.02,0,1.41l-6.09,6.09l6.08,5.99
		c0.19,0.19,0.3,0.44,0.3,0.71s-0.1,0.52-0.29,0.71l-4.6,4.6C31.31,36.25,31.06,36.35,30.8,36.35z"/>
</g>
<g class="light" id="light_1_">
	<linearGradient id="light_3_" gradientUnits="userSpaceOnUse" x1="18.1447" y1="9.0313" x2="26.1403" y2="29.4454">
		<stop  offset="0" style="stop-color:#FFFFFF;stop-opacity:0"/>
		<stop  offset="1" style="stop-color:#FFFFFF;stop-opacity:0.3"/>
	</linearGradient>
	<path id="light_2_" fill="url(#light_3_)" d="M38.24,21.3C36.97,14.58,31.08,9.5,24,9.5C15.99,9.5,9.5,15.99,9.5,24
		c0,1.72,0.32,3.37,0.87,4.9C18.92,24.76,28.32,22.13,38.24,21.3z"/>
</g>
</svg>